<?xml version="1.0"?>
<svg xmlns="http://www.w3.org/2000/svg" id="Capa_1" enable-background="new 0 0 511.996 511.996" height="512px" viewBox="0 0 511.996 511.996" width="512px"><g><g><path d="m374.284 103.284v-19.428c0-27.256-22.174-49.43-49.43-49.43h-137.712c-27.255 0-49.43 22.174-49.43 49.43v19.428h-137.712v374.285h511.996v-374.285zm-206.572-19.428c0-10.714 8.716-19.43 19.43-19.43h137.712c10.713 0 19.43 8.716 19.43 19.43v19.428h-176.572zm314.284 49.428v50.199l-225.998 130.48-225.998-130.48v-50.199zm-451.996 314.285v-229.445l225.998 130.48 225.998-130.48v229.446h-451.996z" data-original="#000000" class="active-path" data-old_color="#000000" fill="#FFFFFF"/><path d="m221.569 204.698h68.857v30h-68.857z" data-original="#000000" class="active-path" data-old_color="#000000" fill="#FFFFFF"/></g></g> </svg>
